<svg width="22" height="23" viewBox="0 0 22 23" fill="none" xmlns="http://www.w3.org/2000/svg">
<g clip-path="url(#clip0_6_133)">
<path d="M21.0829 1.41931C20.3249 0.650709 19.2195 0.335579 18.1702 0.588929L4.15819 3.53375C1.49726 3.9275 -0.340637 6.40382 0.0531151 9.06471C0.206191 10.0992 0.688187 11.057 1.42779 11.7963L2.92997 13.2994C3.0003 13.3688 3.03961 13.4637 3.03905 13.5625V16.3341C3.04107 18.0584 4.43834 19.4556 6.1626 19.4576H8.9342C9.03315 19.4576 9.12809 19.4969 9.19816 19.5667L10.7003 21.0689C11.6087 21.9832 12.844 22.4978 14.1328 22.4987C14.6648 22.4983 15.1932 22.4113 15.6973 22.2411C17.4369 21.6634 18.701 20.1527 18.9629 18.3386L21.9077 4.37058C22.1723 3.31018 21.8589 2.18885 21.0829 1.41931ZM2.86128 7.67556C3.11037 6.90597 3.78256 6.35025 4.58528 6.25036C4.61767 6.24606 4.64972 6.24056 4.68151 6.23386L16.8916 3.66758L5.7887 14.764V13.5625C5.79072 12.7335 5.4606 11.9383 4.87218 11.3545L3.3718 9.85234C2.79391 9.28712 2.59491 8.43879 2.86128 7.67556ZM16.2628 17.8198C16.2555 17.8519 16.2509 17.8839 16.2463 17.916C16.0872 19.077 15.017 19.8891 13.856 19.7299C13.3974 19.667 12.9718 19.4559 12.6444 19.1286L11.1431 17.6273C10.559 17.0387 9.76346 16.7086 8.93424 16.7108H7.73267L18.8328 5.6079L16.2628 17.8198Z" fill="#FCF5FE"/>
</g>
<defs>
<clipPath id="clip0_6_133">
<rect width="22" height="22" fill="white" transform="translate(0 0.5)"/>
</clipPath>
</defs>
</svg>
