<svg width="24" height="24" viewBox="0 0 24 24" fill="none" xmlns="http://www.w3.org/2000/svg">
<mask id="mask0_6_116" style="mask-type:alpha" maskUnits="userSpaceOnUse" x="0" y="0" width="24" height="24">
<rect width="24" height="24" fill="#D9D9D9"/>
</mask>
<g mask="url(#mask0_6_116)">
<path d="M9.07617 16.2502L12.0012 14.4752L14.9262 16.2502L14.1512 12.9252L16.7512 10.6752L13.3262 10.4002L12.0012 7.2502L10.6762 10.4002L7.25117 10.6752L9.85117 12.9252L9.07617 16.2502ZM12.0012 23.3002L8.65117 20.0002H4.00117V15.3502L0.701172 12.0002L4.00117 8.6502V4.0002H8.65117L12.0012 0.700195L15.3512 4.0002H20.0012V8.6502L23.3012 12.0002L20.0012 15.3502V20.0002H15.3512L12.0012 23.3002ZM12.0012 20.5002L14.5012 18.0002H18.0012V14.5002L20.5012 12.0002L18.0012 9.5002V6.0002H14.5012L12.0012 3.5002L9.50117 6.0002H6.00117V9.5002L3.50117 12.0002L6.00117 14.5002V18.0002H9.50117L12.0012 20.5002Z" fill="#BB5302"/>
</g>
</svg>
